#N canvas 1718 307 762 566 10;
#X obj 298 348 osc~, f 5;
#X obj 282 527 dac~;
#X obj 297 312 +~;
#X obj 423 252 osc~;
#X floatatom 423 222 5 0 0 0 - - -;
#X obj 423 298 *~;
#X floatatom 489 166 5 0 0 0 - - -;
#X obj 299 407 *~;
#X msg 401 360 1;
#X obj 298 374 *~ 0.2;
#X obj 355 393 line~;
#X obj 355 332 t;
#X obj 355 179 bng 15 250 50 0 empty empty empty 17 7 0 10 -262144
-1 -1;
#X obj 416 389 noise~;
#X obj 401 436 *~;
#X obj 295 192 t;
#X obj 203 267 line~;
#X msg 203 207 100 250;
#X obj 416 413 *~ 0.0005;
#X floatatom 283 142 5 0 0 0 - - -;
#X obj 283 476 *~;
#X obj 299 449 +~;
#X obj 474 202 *~;
#X msg 355 360 0 120;
#X msg 230 234 150;
#X obj 283 51 mrpeach/unpackOSC;
#X obj 283 105 mrpeach/routeOSC /params/hardness;
#X obj 507 105 mrpeach/routeOSC /trigger;
#X obj 287 27 mrpeach/udpreceive 9990;
#X connect 0 0 9 0;
#X connect 2 0 0 0;
#X connect 3 0 5 0;
#X connect 4 0 3 0;
#X connect 5 0 2 1;
#X connect 6 0 22 1;
#X connect 7 0 21 0;
#X connect 8 0 10 0;
#X connect 9 0 7 0;
#X connect 10 0 7 1;
#X connect 10 0 14 0;
#X connect 11 0 23 0;
#X connect 11 1 8 0;
#X connect 12 0 11 0;
#X connect 12 0 15 0;
#X connect 13 0 18 0;
#X connect 14 0 21 1;
#X connect 15 0 17 0;
#X connect 15 1 24 0;
#X connect 16 0 2 0;
#X connect 17 0 16 0;
#X connect 18 0 14 1;
#X connect 19 0 20 0;
#X connect 19 0 22 0;
#X connect 20 0 1 0;
#X connect 20 0 1 1;
#X connect 21 0 20 1;
#X connect 22 0 5 1;
#X connect 23 0 10 0;
#X connect 24 0 16 0;
#X connect 25 0 26 0;
#X connect 25 0 27 0;
#X connect 26 0 19 0;
#X connect 27 0 12 0;
#X connect 28 0 25 0;
