#N canvas 839 643 714 628 10;
#X obj 215 563 dac~;
#X obj 216 323 noise~;
#X obj 265 323 line~;
#X msg 265 250 bang;
#X obj 216 354 *~;
#X msg 265 297 1 \, 0 \$1;
#X obj 295 351 noise~;
#X obj 295 402 *~;
#X obj 295 375 lop~ 55;
#X obj 296 464 *~ 10;
#X obj 367 428 hip~ 15000;
#X obj 295 523 *~;
#X msg 344 509 0;
#X msg 304 116 1;
#X msg 265 116 0;
#X msg 374 509 1;
#X obj 265 271 random 25;
#X obj 265 199 ==;
#X obj 215 429 hip~ 9000;
#X obj 265 225 spigot;
#X obj 265 176 random 5;
#X obj 343 176 random 5;
#X obj 137 323 random 7000;
#X obj 215 407 bp~ 9000 6;
#X obj 296 428 lop~ 80;
#X obj 444 428 bp~ 2500 10;
#X obj 443 449 *~ 0.05;
#X obj 215 538 *~ 2.5;
#X obj 215 448 *~ 0.1;
#X obj 265 32 mrpeach/unpackOSC;
#X obj 470 54 mrpeach/routeOSC /flameOnOff;
#X obj 265 85 moses 1;
#X obj 470 495 moses 1;
#X obj 265 54 mrpeach/routeOSC /crackles/OnOff;
#X floatatom 48 78 5 0 0 0 - - -;
#X obj 48 46 mrpeach/routeOSC /crackles/freq;
#X obj 265 148 metro 150;
#X obj 265 9 mrpeach/udpreceive 9992;
#X connect 1 0 4 0;
#X connect 2 0 4 1;
#X connect 3 0 16 0;
#X connect 3 0 22 0;
#X connect 4 0 23 0;
#X connect 5 0 2 0;
#X connect 6 0 8 0;
#X connect 7 0 10 0;
#X connect 7 0 24 0;
#X connect 7 0 25 0;
#X connect 8 0 7 0;
#X connect 8 0 7 1;
#X connect 9 0 11 0;
#X connect 10 0 9 0;
#X connect 11 0 27 0;
#X connect 12 0 11 1;
#X connect 13 0 36 0;
#X connect 14 0 36 0;
#X connect 15 0 11 1;
#X connect 16 0 5 0;
#X connect 17 0 19 1;
#X connect 17 0 19 0;
#X connect 18 0 28 0;
#X connect 19 0 3 0;
#X connect 20 0 17 0;
#X connect 21 0 17 1;
#X connect 22 0 23 1;
#X connect 23 0 18 0;
#X connect 24 0 9 0;
#X connect 25 0 26 0;
#X connect 26 0 9 0;
#X connect 27 0 0 0;
#X connect 27 0 0 1;
#X connect 28 0 27 0;
#X connect 29 0 30 0;
#X connect 29 0 33 0;
#X connect 29 0 35 0;
#X connect 30 0 32 0;
#X connect 31 0 14 0;
#X connect 31 1 13 0;
#X connect 32 0 12 0;
#X connect 32 1 15 0;
#X connect 33 0 31 0;
#X connect 34 0 36 1;
#X connect 35 0 34 0;
#X connect 36 0 20 0;
#X connect 36 0 21 0;
#X connect 37 0 29 0;
