#N canvas 293 78 642 483 10;
#X obj 233 128 noise~;
#X obj 233 153 lop~ 100;
#X obj 233 178 *~;
#X obj 290 394 dac~;
#X obj 232 206 *~;
#X obj 232 233 *~;
#X obj 232 257 *~ 10000;
#X obj 162 192 bp~ 4500 5;
#X obj 216 282 +~;
#X obj 217 308 hip~ 500;
#X obj 289 333 +~;
#X obj 305 273 hip~ 10;
#X obj 305 245 lop~ 2000;
#X obj 305 221 *~ 5;
#X obj 418 193 bp~ 1000 0.5;
#X obj 418 272 *~ \$1;
#X obj 448 240 hsl 128 15 0 0.7 0 0 empty empty empty -2 -8 0 10 -262144
-1 -1 0 1;
#X obj 233 45 mrpeach/udpreceive 9994;
#X obj 233 66 mrpeach/unpackOSC;
#X obj 233 88 mrpeach/routeOSC /toggle;
#X obj 445 91 mrpeach/routeOSC /intensity;
#X obj 289 362 *~;
#X floatatom 390 349 5 0 0 0 - - -;
#X connect 0 0 1 0;
#X connect 1 0 2 0;
#X connect 1 0 2 1;
#X connect 2 0 4 0;
#X connect 2 0 4 1;
#X connect 2 0 7 0;
#X connect 2 0 14 0;
#X connect 4 0 5 0;
#X connect 4 0 5 1;
#X connect 4 0 13 0;
#X connect 5 0 6 0;
#X connect 6 0 8 1;
#X connect 7 0 8 0;
#X connect 8 0 9 0;
#X connect 9 0 10 0;
#X connect 10 0 21 0;
#X connect 11 0 10 1;
#X connect 12 0 11 0;
#X connect 13 0 12 0;
#X connect 14 0 15 0;
#X connect 15 0 10 1;
#X connect 16 0 15 1;
#X connect 17 0 18 0;
#X connect 18 0 19 0;
#X connect 18 0 20 0;
#X connect 19 0 22 0;
#X connect 20 0 16 0;
#X connect 21 0 3 0;
#X connect 21 0 3 1;
#X connect 22 0 21 1;
