#N canvas 2289 469 883 687 10;
#X obj 492 443 osc~;
#X obj 495 278 line~;
#X obj 494 306 *~;
#X obj 494 330 *~;
#X obj 494 355 *~;
#X msg 495 254 1 0 \, 0 25;
#X obj 493 407 *~ 5000;
#X obj 492 521 *~ 0.25;
#X obj 491 558 dac~;
#X obj 494 384 *~;
#X obj 522 462 clip~ -0.2 0.3;
#X obj 416 295 line;
#X obj 342 367 *~;
#X obj 287 316 line~;
#X msg 287 291 1 0 \, 0 30;
#X obj 328 204 bng 15 250 50 0 empty empty empty 17 7 0 10 -262144
-1 -1;
#X obj 416 319 osc~;
#X msg 416 254 120 0 \, 0 30;
#X obj 552 407 osc~;
#X obj 553 370 *~ 5000;
#X obj 358 290 noise~;
#X obj 357 320 *~ 0.01;
#X obj 236 316 noise~;
#X obj 222 293 line~;
#X obj 221 350 *~;
#X obj 222 382 *~ 0.1;
#X msg 222 261 1 0 \, 0 300;
#X obj 239 431 line;
#X obj 223 454 vcf~ 2;
#X obj 328 431 line;
#X obj 543 320 noise~;
#X obj 622 335 lop~;
#X obj 575 281 line;
#X msg 575 255 0 20000 \, 0 20;
#X obj 590 406 *~ 2;
#X msg 328 406 1000 0 \, 0 230;
#X msg 239 406 2000 0 \, 0 350;
#X obj 362 474 *~ 0.3;
#X obj 667 278 noise~;
#X obj 666 304 hip~;
#X obj 717 278 line;
#X obj 697 357 line~;
#X msg 697 334 1 0 \, 0 300;
#X obj 666 386 *~;
#X msg 717 255 0 0 \, 20000 250;
#X obj 666 448 *~ 0.035;
#X obj 312 454 vcf~ 2;
#X obj 418 431 line;
#X obj 402 454 vcf~ 4;
#X msg 418 406 3500 \, 0 400;
#X obj 320 108 mrpeach/unpackOSC;
#X obj 320 137 mrpeach/routeOSC /shoot;
#X obj 320 82 mrpeach/udpreceive 9991;
#X connect 0 0 7 0;
#X connect 0 0 10 0;
#X connect 1 0 2 0;
#X connect 1 0 2 1;
#X connect 2 0 3 0;
#X connect 2 0 3 1;
#X connect 3 0 4 0;
#X connect 3 0 4 1;
#X connect 4 0 9 0;
#X connect 4 0 9 1;
#X connect 4 0 19 0;
#X connect 5 0 1 0;
#X connect 6 0 0 0;
#X connect 7 0 8 0;
#X connect 7 0 8 1;
#X connect 9 0 6 0;
#X connect 10 0 7 0;
#X connect 11 0 16 0;
#X connect 12 0 7 0;
#X connect 13 0 12 0;
#X connect 14 0 13 0;
#X connect 15 0 5 0;
#X connect 15 0 17 0;
#X connect 15 0 26 0;
#X connect 15 0 36 0;
#X connect 15 0 33 0;
#X connect 15 0 14 0;
#X connect 15 0 35 0;
#X connect 15 0 44 0;
#X connect 15 0 42 0;
#X connect 15 0 49 0;
#X connect 16 0 12 1;
#X connect 17 0 11 0;
#X connect 18 0 10 0;
#X connect 19 0 18 0;
#X connect 20 0 21 0;
#X connect 21 0 12 1;
#X connect 22 0 24 1;
#X connect 23 0 24 0;
#X connect 24 0 25 0;
#X connect 24 0 46 0;
#X connect 25 0 28 0;
#X connect 25 0 48 0;
#X connect 26 0 23 0;
#X connect 27 0 28 1;
#X connect 28 0 7 0;
#X connect 29 0 46 1;
#X connect 30 0 31 0;
#X connect 31 0 34 0;
#X connect 32 0 31 1;
#X connect 33 0 32 0;
#X connect 34 0 10 0;
#X connect 35 0 29 0;
#X connect 36 0 27 0;
#X connect 37 0 7 0;
#X connect 38 0 39 0;
#X connect 39 0 43 0;
#X connect 40 0 39 1;
#X connect 41 0 43 1;
#X connect 42 0 41 0;
#X connect 43 0 45 0;
#X connect 44 0 40 0;
#X connect 45 0 7 0;
#X connect 46 0 37 0;
#X connect 47 0 48 1;
#X connect 48 0 7 0;
#X connect 49 0 47 0;
#X connect 50 0 51 0;
#X connect 51 0 15 0;
#X connect 52 0 50 0;
